<?xml version="1.0" encoding="UTF-8"?>
<svg width="32px" height="32px" viewBox="0 0 32 32" version="1.1" xmlns="http://www.w3.org/2000/svg" xmlns:xlink="http://www.w3.org/1999/xlink">
    <title>RDR2 Bounty</title>
    <g id="rdr2-bounty" stroke="none" stroke-width="1" fill="none" fill-rule="evenodd">
        <rect id="poster" fill="#DEC29B" x="7" y="5" width="18" height="22" rx="1"></rect>
        <path d="M9,9 L23,9 L23,19 L9,19 L9,9 Z" id="photo-area" fill="#C8B28D" stroke="#716454" stroke-dasharray="1,1"></path>
        <path d="M12,14 C12,14 14,12 16,14 C18,16 20,14 20,14" id="person" stroke="#716454" stroke-width="1" stroke-linecap="round"></path>
        <circle id="head" fill="#9E9985" cx="16" cy="12" r="2" stroke="#716454"></circle>
        <path d="M9,21 L14,21 M18,21 L23,21 M9,23 L23,23 M9,25 L18,25" id="text-lines" stroke="#40423D" stroke-width="1.5" stroke-linecap="round"></path>
        <circle id="star-bg" fill="#716454" cx="22" cy="24.5" r="2.5"></circle>
        <path d="M22,23 L22.5,24 L23.5,24 L22.75,24.75 L23,26 L22,25.5 L21,26 L21.25,24.75 L20.5,24 L21.5,24 L22,23 Z" id="star" fill="#DEC29B"></path>
    </g>
</svg> 