<?xml version="1.0" encoding="UTF-8"?>
<svg width="32px" height="32px" viewBox="0 0 32 32" version="1.1" xmlns="http://www.w3.org/2000/svg" xmlns:xlink="http://www.w3.org/1999/xlink">
    <title>RDR2 Gun Shop</title>
    <g id="rdr2-gun-shop" stroke="none" stroke-width="1" fill="none" fill-rule="evenodd">
        <circle id="bg" fill-opacity="0.1" fill="#DEC29B" cx="16" cy="16" r="15"></circle>
        <rect id="base" fill="#C8B28D" x="6" y="17" width="20" height="4" rx="1"></rect>
        <path d="M7,17 L7,12 L9,12 L9,17 L7,17 Z" id="handle" fill="#716454"></path>
        <path d="M25,17 L25,16 C25,16 28,15 28,14 L28,12 L26,12 L26,10 L24,10 L24,12 L23,12 L23,14 C23,15 24,16 24,16 L24,17 L25,17 Z" id="hammer" fill="#40423D"></path>
        <path d="M26,17 L27,15 L27,14 L22,14 L22,15 L23,17 L26,17 Z" id="trigger" fill="#40423D"></path>
        <path d="M6,18 L26,18" id="line1" stroke="#40423D"></path>
        <path d="M6,20 L26,20" id="line2" stroke="#40423D"></path>
    </g>
</svg> 