<?xml version="1.0" encoding="UTF-8"?>
<svg width="32px" height="32px" viewBox="0 0 32 32" version="1.1" xmlns="http://www.w3.org/2000/svg" xmlns:xlink="http://www.w3.org/1999/xlink">
    <title>RDR2 Horse Stable</title>
    <g id="rdr2-horse" stroke="none" stroke-width="1" fill="none" fill-rule="evenodd">
        <circle id="bg" fill-opacity="0.1" fill="#DEC29B" cx="16" cy="16" r="14" stroke="#716454"></circle>
        <path d="M8,22 L8,16 L16,11 L24,16 L24,22" id="stable" stroke="#40423D" stroke-width="1.5" fill="#C8B28D"></path>
        <path d="M5,22 L27,22" id="ground" stroke="#716454" stroke-width="2" stroke-linecap="round"></path>
        <path d="M12,22 L12,18 L20,18 L20,22" id="door" stroke="#716454"></path>
        <path d="M16,14 L16,11" id="roof-line" stroke="#716454"></path>
        <path d="M10,16 L12,13 M20,16 L18,13" id="windows" stroke="#716454"></path>
        <path d="M22,17 C22,17 19,15 19,13 C19,11 20,10 22,10 C22,10 24,14 22,17 Z" id="horse-head" fill="#9E9985" stroke="#40423D"></path>
        <path d="M22,13 C22,13 23,11 25,12" id="horse-ear" stroke="#40423D"></path>
        <circle id="horse-eye" fill="#40423D" cx="21" cy="12" r="0.5"></circle>
    </g>
</svg> 