<?xml version="1.0" encoding="UTF-8"?>
<svg width="32px" height="32px" viewBox="0 0 32 32" version="1.1" xmlns="http://www.w3.org/2000/svg" xmlns:xlink="http://www.w3.org/1999/xlink">
    <title>RDR2 Hunting</title>
    <g id="rdr2-hunting" stroke="none" stroke-width="1" fill="none" fill-rule="evenodd">
        <circle id="bg" fill-opacity="0.1" fill="#C8B28D" cx="16" cy="16" r="14" stroke="#716454"></circle>
        <path d="M7,18 C7,18 11,12 16,12 C21,12 25,18 25,18" id="antlers-base" stroke="#40423D" stroke-width="2" stroke-linecap="round"></path>
        <path d="M11,12 L9,7 M13,12 L14,6 M16,12 L16,5 M19,12 L18,6 M21,12 L23,7" id="antlers" stroke="#40423D" stroke-width="1.5" stroke-linecap="round"></path>
        <path d="M16,25 C18,25 23,23 23,20 C23,17 19,18 16,18 C13,18 9,17 9,20 C9,23 14,25 16,25 Z" id="deer-head" fill="#C8B28D" stroke="#716454"></path>
        <circle id="eye" fill="#40423D" cx="13.5" cy="21" r="1"></circle>
        <path d="M17,22 C17,22 19,22 19,20.5" id="nostril" stroke="#40423D" stroke-linecap="round"></path>
    </g>
</svg> 