<?xml version="1.0" encoding="UTF-8"?>
<svg width="32px" height="32px" viewBox="0 0 32 32" version="1.1" xmlns="http://www.w3.org/2000/svg" xmlns:xlink="http://www.w3.org/1999/xlink">
    <title>RDR2 Train Station</title>
    <g id="rdr2-train" stroke="none" stroke-width="1" fill="none" fill-rule="evenodd">
        <circle id="bg" fill-opacity="0.15" fill="#DEC29B" cx="16" cy="16" r="15" stroke="#716454"></circle>
        <path d="M4,20 L28,20" id="tracks" stroke="#40423D" stroke-width="2"></path>
        <path d="M8,20 L8,18 M10,20 L10,18 M22,20 L22,18 M24,20 L24,18" id="ties" stroke="#40423D"></path>
        <path d="M12,20 L12,16 L20,16 L20,20" id="platform" stroke="#716454" fill="#C8B28D"></path>
        <path d="M11,16 L21,16" id="platform-top" stroke="#716454"></path>
        <path d="M14,16 L14,12 L18,12 L18,16" id="station-building" stroke="#716454" fill="#9E9985"></path>
        <path d="M13,12 L19,12" id="station-roof" stroke="#716454"></path>
        <path d="M15,16 L15,14 L17,14 L17,16" id="door" stroke="#716454"></path>
        <rect id="window" fill="#DEC29B" x="15.5" y="12.5" width="1" height="1"></rect>
        <path d="M4,14 L7,14 C8,14 8,11 9,11 L11,11 L11,14 L4,14 Z" id="train-engine" fill="#40423D" stroke="#716454"></path>
        <rect id="train-car" fill="#9E9985" stroke="#716454" x="11" y="12" width="3" height="2"></rect>
        <circle id="wheel1" fill="#716454" cx="5.5" cy="14" r="0.5"></circle>
        <circle id="wheel2" fill="#716454" cx="7.5" cy="14" r="0.5"></circle>
        <circle id="wheel3" fill="#716454" cx="12.5" cy="14" r="0.5"></circle>
    </g>
</svg> 