<?xml version="1.0" encoding="UTF-8"?>
<svg width="32px" height="32px" viewBox="0 0 32 32" version="1.1" xmlns="http://www.w3.org/2000/svg" xmlns:xlink="http://www.w3.org/1999/xlink">
    <title>RDR2 Treasure</title>
    <g id="rdr2-treasure" stroke="none" stroke-width="1" fill="none" fill-rule="evenodd">
        <circle id="bg" fill-opacity="0.15" fill="#DEC29B" cx="16" cy="16" r="15" stroke="#716454"></circle>
        <path d="M7,9 L25,9 L25,23 L7,23 L7,9 Z" id="map" fill="#C8B28D" stroke="#40423D"></path>
        <path d="M7,9 L12,7 L30,7 L25,9" id="map-fold-top" stroke="#716454"></path>
        <path d="M25,23 L30,21 L30,7" id="map-fold-right" stroke="#716454"></path>
        <path d="M10,13 C10,13 13,18 16,18 C19,18 22,13 22,13" id="mountain" stroke="#40423D" stroke-width="1.5" stroke-linecap="round"></path>
        <path d="M12,19 L20,19" id="horizontal-line" stroke="#40423D" stroke-dasharray="1,1"></path>
        <path d="M16,12 L16,20" id="vertical-line" stroke="#40423D" stroke-dasharray="1,1"></path>
        <path d="M16,15 L15,14 L17,14 Z" id="north" fill="#716454"></path>
        <circle id="treasure-spot" fill="#9E6044" cx="16" cy="19" r="1.5" stroke="#40423D"></circle>
        <path d="M15,19 L17,19 M16,18 L16,20" id="x-mark" stroke="#40423D" stroke-width="1.5"></path>
    </g>
</svg> 